Coordinates
version=1
nRows=8
nColumns=36
inDegrees=yes

Units are S.I. units (second, meters, Newtons, ...)
If the header above contains a line with 'inDegrees', this indicates whether rotational values are in degrees (yes) or radians (no).

endheader
time	pelvis_tilt	pelvis_list	pelvis_rotation	pelvis_tx	pelvis_ty	pelvis_tz	hip_flexion_r	hip_adduction_r	hip_rotation_r	knee_angle_r	knee_angle_r_beta	ankle_angle_r	subtalar_angle_r	mtp_angle_r	hip_flexion_l	hip_adduction_l	hip_rotation_l	knee_angle_l	knee_angle_l_beta	ankle_angle_l	subtalar_angle_l	mtp_angle_l	lumbar_extension	lumbar_bending	lumbar_rotation	arm_flex_r	arm_add_r	arm_rot_r	elbow_flex_r	pro_sup_r	arm_flex_l	arm_add_l	arm_rot_l	elbow_flex_l	pro_sup_l
      0.00000000	      4.93556500	      1.55355799	      7.58885696	      0.82902985	      0.98616869	      0.82003445	     -5.93243607	      0.12069175	      0.70014388	      9.98894739	      0.17434002	      7.49211284	     -5.81789694	     -6.99565991	     17.44176406	     -1.48269164	     -0.19493500	     44.56404662	      0.77778934	      2.29307062	    -15.58724492	     -6.99565991	    -27.77298495	      0.11631652	      1.09396744	      5.83613985	    -12.17661881	     -5.44950602	     32.60048843	     84.07404387	     13.62259701	    -10.51040565	      4.38499965	     22.26620319	     78.10378596
      0.01666670	      3.89883052	      1.33666719	      7.49934572	      0.83388568	      0.98435466	      0.82406222	     -5.32834215	      0.20400374	      2.60943982	     11.68718116	      0.20397979	      9.63966443	     -5.08776072	     -7.02677344	     20.55530549	     -2.14551379	     -0.76595960	     43.05596249	      0.75146831	      1.04748602	    -15.35691488	     -7.02677344	    -28.26387308	     -0.74514306	      2.86285396	      4.86121504	    -12.68787527	     -5.74058735	     33.84365633	     82.98349788	     13.56735219	    -10.58444528	      3.40861319	     23.53684016	     77.31666933
      0.03333330	      3.91486562	      1.95911828	      7.87130559	      0.83389208	      0.98179889	      0.82638142	     -6.89828613	     -0.54540738	      3.44410240	     11.16927750	      0.19494067	     10.54448016	     -5.16241461	     -7.06472215	     21.63679979	     -1.64664332	     -0.03678044	     39.41212044	      0.68787127	      2.71279302	    -12.63630247	     -7.06472215	    -29.09377838	     -1.76758126	      3.49359107	      5.23967353	    -12.52246250	     -6.36902199	     34.58879816	     79.95301064	     13.56636836	    -10.72117385	      1.26564986	     23.42036920	     75.19198576
      0.05000000	      2.77713059	      2.19702481	      8.24722394	      0.83292732	      0.97247450	      0.82475904	     -6.87256949	     -1.21842817	      3.57859319	     11.26656491	      0.19663865	     12.79623928	     -3.94525047	     -7.22149925	     24.19790565	     -1.55453510	      0.25338928	     35.49246296	      0.61946034	      4.09075760	    -10.95855256	     -7.22149925	    -28.48428730	     -2.54421821	      3.60910228	      5.67204961	    -12.44476154	     -5.06218777	     34.30776811	     74.31639825	     12.45900012	    -11.08391019	     -1.11021009	     24.11930566	     74.79600820
      0.06666670	      1.71059153	      2.32434867	      8.22755636	      0.82847586	      0.96190294	      0.81949607	     -6.70834326	     -1.62692944	      4.51273774	     11.40897115	      0.19912411	     15.09135847	     -3.53358449	     -7.22828623	     27.12223988	     -1.37856335	      0.67213282	     32.44168412	      0.56621420	      5.83089165	     -9.81983347	     -7.22828623	    -28.01440179	     -3.29716097	      4.26546374	      5.93107471	    -12.49482820	     -5.05749325	     34.58570333	     74.23034796	     11.83787988	    -11.36300335	     -1.06634588	     24.30208438	     74.79319074
      0.08333330	      0.97955770	      2.50477148	      8.31228314	      0.82241505	      0.95458872	      0.81041685	     -7.02242441	     -2.06201814	      5.06001525	     11.09443754	      0.19363446	     16.58503262	     -3.12437609	     -7.23715690	     30.03126531	     -0.70667732	      1.79244762	     30.13918645	      0.52602804	      7.34942627	     -9.53404310	     -7.23715690	    -28.07045438	     -3.67527825	      4.61510450	      6.51572221	    -12.82039500	     -5.08433596	     35.26561801	     73.97815467	     11.35413649	    -11.22991187	     -1.03528718	     24.88986568	     74.53465030
      0.10000000	     -0.29044972	      3.29342754	      7.67448870	      0.82009311	      0.95102070	      0.80073522	     -6.76038348	     -3.28537319	      6.17269078	     10.92494415	      0.19067625	     18.00627056	     -2.45299367	     -7.25951552	     33.11987501	      0.42958122	      2.05679100	     28.35480267	      0.49488467	      9.65035294	     -8.57677038	     -7.25951552	    -27.08086138	     -5.00302059	      5.28983577	      7.10181368	    -13.36188048	     -3.67882762	     35.39756971	     74.58917702	     11.21158336	    -10.96281839	     -0.29401592	     23.74737697	     75.29820987
      0.11666670	     -1.00632692	      4.34285047	      7.32962021	      0.82149530	      0.94807647	      0.79228808	     -7.52163921	     -4.71914372	      6.70677431	     10.33897428	      0.18044914	     18.42696219	     -1.95503285	     -7.26136028	     35.40493684	      2.11318857	      2.98283359	     27.42989883	      0.47874205	     11.28729314	     -8.45622356	     -7.26136028	    -26.58974434	     -6.21230360	      5.69541284	      7.57335724	    -13.98107901	     -2.92528660	     35.82804781	     75.27365004	     10.97868295	    -10.42682826	     -0.23499796	     22.92392917	     75.86855151
